<svg xmlns="http://www.w3.org/2000/svg" xmlns:xlink="http://www.w3.org/1999/xlink" width="40" zoomAndPan="magnify" viewBox="0 0 384 383.999986" height="40" preserveAspectRatio="xMidYMid meet" version="1.0"><defs><clipPath id="149e0eb296"><path d="M 66.195312 19.878906 L 317 19.878906 L 317 364.128906 L 66.195312 364.128906 Z M 66.195312 19.878906 " clip-rule="nonzero"/></clipPath><clipPath id="dd71ab1c51"><path d="M 66.195312 19.878906 L 317 19.878906 L 317 364.128906 L 66.195312 364.128906 Z M 66.195312 19.878906 " clip-rule="nonzero"/></clipPath></defs><g clip-path="url(#149e0eb296)"><path fill="#000000" d="M 304.1875 117.851562 L 304.195312 118.726562 L 304.167969 119.316406 L 304.117188 120.417969 L 304 122.621094 C 303.914062 124.089844 303.816406 125.558594 303.703125 127.023438 C 303.480469 129.957031 303.210938 132.882812 302.875 135.804688 C 302.097656 142.53125 301.0625 149.230469 299.71875 155.886719 C 299.558594 156.71875 299.378906 157.550781 299.203125 158.378906 C 299.03125 159.203125 298.832031 160.0625 298.710938 160.820312 L 297.871094 165.519531 L 297.1875 170.402344 C 296.960938 172.027344 296.734375 173.65625 296.554688 175.304688 C 294.902344 189.121094 293.433594 203.078125 292.488281 216.992188 C 291.429688 232.574219 289.960938 248.097656 288.765625 263.664062 C 288.402344 268.292969 288.417969 272.941406 288.066406 277.570312 C 287.28125 287.847656 286.4375 298.125 285.574219 308.398438 L 283.011719 338.75 L 282.386719 346.335938 L 282.078125 350.128906 L 282.039062 350.617188 L 281.949219 351.394531 C 281.863281 351.914062 281.765625 352.429688 281.605469 352.933594 C 281.308594 353.9375 280.878906 354.914062 280.308594 355.792969 C 279.183594 357.566406 277.5625 359.015625 275.675781 359.914062 C 274.734375 360.367188 273.734375 360.695312 272.714844 360.867188 C 272.417969 360.921875 272.300781 360.933594 272.132812 360.960938 L 271.644531 361.03125 L 270.675781 361.167969 C 268.09375 361.519531 265.519531 361.8125 262.945312 362.074219 C 253.523438 363.007812 244.121094 363.492188 234.722656 363.710938 C 230.003906 363.8125 225.375 363.839844 220.726562 363.898438 L 206.78125 364.042969 L 201.792969 364.027344 C 181.511719 364.015625 161.21875 364.144531 140.945312 363.949219 C 130.183594 363.84375 119.429688 363.945312 108.679688 364.050781 C 108.214844 364.066406 106.828125 364.074219 105.738281 363.851562 C 104.605469 363.644531 103.507812 363.25 102.484375 362.71875 C 100.433594 361.65625 98.71875 359.972656 97.609375 357.933594 C 97.050781 356.921875 96.640625 355.820312 96.410156 354.695312 C 96.382812 354.570312 96.339844 354.375 96.328125 354.308594 L 96.027344 352.503906 C 95.804688 351.132812 95.554688 349.746094 95.382812 348.398438 L 94.820312 344.332031 L 94.332031 340.28125 C 94 337.578125 93.738281 334.882812 93.46875 332.1875 C 92.761719 324.847656 92.164062 317.523438 91.601562 310.195312 C 90.800781 299.902344 90.082031 289.613281 89.445312 279.3125 C 88.824219 269 88.238281 258.730469 87.96875 248.296875 L 87.90625 241.46875 C 87.832031 239.222656 87.78125 236.980469 87.675781 234.710938 C 87.492188 230.183594 87.265625 225.636719 87.035156 221.09375 C 86.566406 212.003906 86.042969 202.90625 85.515625 193.808594 C 84.800781 181.617188 84.199219 169.421875 83.328125 157.238281 C 82.597656 146.972656 81.546875 136.726562 80.695312 126.464844 C 80.605469 125.390625 80.527344 124.3125 80.460938 123.234375 L 80.363281 121.617188 C 80.351562 121.515625 80.347656 121.261719 80.34375 121.074219 L 80.339844 120.472656 C 80.367188 120.070312 80.398438 119.667969 80.457031 119.269531 C 80.710938 117.671875 81.351562 116.144531 82.289062 114.851562 C 83.222656 113.554688 84.476562 112.507812 85.886719 111.777344 C 86.34375 111.527344 86.804688 111.394531 87.203125 111.277344 C 87.617188 111.195312 87.984375 111.136719 88.3125 111.144531 C 88.375 111.144531 88.429688 111.152344 88.488281 111.15625 L 103.625 109.753906 L 103.621094 109.761719 C 105.605469 109.550781 107.648438 109.40625 109.730469 109.3125 C 116.386719 109.011719 123.0625 108.871094 129.714844 108.554688 C 142.972656 107.929688 156.214844 107.234375 169.53125 106.816406 C 171.523438 106.753906 173.535156 106.84375 175.542969 106.835938 L 240.386719 106.871094 L 286.226562 107.171875 L 290.558594 107.175781 L 292.726562 107.171875 L 292.996094 107.167969 L 293.402344 107.183594 C 293.691406 107.195312 293.984375 107.207031 294.273438 107.238281 C 294.851562 107.316406 295.425781 107.402344 295.992188 107.566406 C 298.261719 108.167969 300.296875 109.535156 301.761719 111.355469 C 302.488281 112.273438 303.074219 113.304688 303.492188 114.40625 C 303.910156 115.507812 304.128906 116.679688 304.1875 117.851562 Z M 316.558594 48.832031 C 316.277344 49.84375 315.789062 50.714844 315.246094 51.449219 C 314.839844 51.957031 314.40625 52.394531 313.941406 52.753906 L 313.941406 52.757812 C 313.75 52.90625 313.554688 53.046875 313.351562 53.164062 C 312.457031 53.722656 311.53125 54.003906 310.667969 54.082031 L 301.640625 57.734375 L 301.640625 57.730469 C 297.207031 59.636719 292.554688 61.183594 287.585938 62.257812 C 269.601562 66.136719 251.644531 70.152344 233.71875 74.300781 C 219.417969 77.621094 205.179688 81.238281 190.890625 84.597656 C 175.386719 88.214844 159.859375 91.707031 144.367188 95.355469 C 143.375 95.589844 142.335938 95.734375 141.390625 96.070312 C 135.421875 98.191406 129.300781 99.742188 123.164062 101.242188 L 113.964844 103.480469 L 109.371094 104.636719 C 107.851562 105.046875 106.335938 105.476562 104.824219 105.917969 L 98.816406 107.675781 L 95.808594 108.546875 L 92.824219 109.457031 L 86.859375 111.273438 L 83.808594 112.191406 C 82.128906 112.691406 80.285156 112.742188 78.59375 112.351562 C 75.1875 111.574219 72.492188 109.214844 71.054688 106.234375 C 70.886719 105.855469 70.726562 105.46875 70.585938 105.078125 L 70.402344 104.480469 C 70.347656 104.289062 70.277344 104.050781 70.257812 103.953125 L 69.886719 102.425781 L 69.144531 99.367188 L 67.664062 93.25 L 66.925781 90.1875 L 66.878906 89.996094 L 66.816406 89.699219 L 66.703125 89.085938 C 66.628906 88.675781 66.609375 88.257812 66.574219 87.84375 C 66.566406 87.425781 66.570312 87.007812 66.59375 86.589844 C 66.640625 86.175781 66.667969 85.753906 66.753906 85.347656 C 67.1875 82.941406 68.472656 80.738281 70.28125 79.125 C 71.1875 78.316406 72.246094 77.675781 73.363281 77.21875 C 73.644531 77.101562 73.921875 76.988281 74.226562 76.90625 L 74.671875 76.773438 C 74.804688 76.738281 75.011719 76.675781 75.082031 76.667969 L 76.222656 76.421875 L 85.21875 74.515625 L 103.179688 70.691406 C 105.558594 70.171875 108.109375 69.699219 110.203125 68.753906 C 114.476562 66.828125 119.023438 65.742188 123.570312 64.65625 C 133.914062 62.191406 144.292969 59.867188 154.632812 57.382812 C 157.113281 56.789062 159.585938 56.1875 162.0625 55.589844 C 161.960938 54.492188 161.914062 53.390625 161.886719 52.289062 C 161.894531 49.316406 162.109375 46.296875 163.007812 43.429688 C 164.070312 40.351562 165.824219 37.605469 167.800781 35.175781 C 167.933594 35.019531 168.144531 34.917969 168.1875 34.710938 C 168.339844 34.050781 168.582031 33.4375 168.949219 32.925781 C 169.320312 32.421875 169.765625 31.964844 170.226562 31.539062 C 170.671875 31.097656 171.191406 30.730469 171.695312 30.351562 C 172.191406 29.972656 172.667969 29.574219 173.101562 29.125 C 175.476562 26.824219 178.402344 25.136719 181.472656 23.949219 C 182.035156 23.738281 182.609375 23.542969 183.179688 23.359375 C 183.765625 23.222656 184.359375 23.097656 184.945312 22.976562 C 186.109375 22.695312 187.324219 22.632812 188.503906 22.472656 C 188.972656 22.394531 189.488281 22.472656 189.878906 21.980469 C 190.691406 21 191.664062 20.820312 192.628906 20.839844 C 193.730469 20.816406 194.828125 20.816406 195.929688 20.996094 L 197.574219 21.210938 L 199.203125 21.5625 C 203.125 22.398438 206.933594 24.09375 210.097656 26.585938 C 212.117188 28.234375 213.875 30.171875 215.328125 32.253906 C 217.375 35.0625 218.972656 38.125 220.058594 41.316406 L 228.773438 39.175781 C 234.824219 37.683594 240.882812 36.210938 246.910156 34.648438 C 264.09375 30.246094 281.261719 25.671875 298.132812 20.644531 C 298.855469 20.445312 299.230469 20.320312 300.699219 20.039062 C 301.945312 19.871094 303.207031 19.929688 304.402344 20.183594 C 306.796875 20.722656 308.820312 22 310.371094 23.617188 C 311.5 24.789062 312.375 26.1875 312.933594 27.710938 C 313.089844 28.085938 313.175781 28.484375 313.289062 28.871094 C 313.351562 29.097656 313.371094 29.207031 313.398438 29.328125 L 313.480469 29.703125 L 313.808594 31.199219 L 315.164062 37.171875 C 315.535156 38.769531 315.929688 40.359375 316.332031 41.945312 L 316.632812 43.136719 C 316.652344 43.210938 316.695312 43.417969 316.722656 43.558594 L 316.816406 44.035156 C 316.886719 44.347656 316.902344 44.671875 316.9375 44.992188 C 317.039062 46.28125 316.914062 47.589844 316.558594 48.832031 Z M 170.511719 53.539062 C 183.890625 50.277344 197.253906 46.957031 210.617188 43.640625 L 210.753906 43.609375 C 210.675781 43.488281 210.589844 43.367188 210.515625 43.246094 C 210.421875 43.089844 210.449219 42.886719 210.386719 42.714844 C 209.609375 40.941406 208.707031 39.234375 207.597656 37.71875 C 207.40625 37.449219 207.234375 37.15625 207.046875 36.878906 L 206.453125 36.082031 C 206.253906 35.816406 206.0625 35.539062 205.851562 35.28125 C 205.625 35.042969 205.394531 34.804688 205.160156 34.574219 C 204.980469 34.398438 204.792969 34.230469 204.601562 34.070312 C 204.414062 33.910156 204.1875 33.796875 203.980469 33.660156 C 203.550781 33.40625 203.15625 33.113281 202.742188 32.855469 C 202.257812 32.566406 201.796875 32.238281 201.332031 31.914062 C 200.835938 31.648438 200.335938 31.371094 199.828125 31.121094 C 199.277344 30.898438 198.714844 30.695312 198.152344 30.492188 C 197.582031 30.320312 196.972656 30.269531 196.375 30.28125 C 196.039062 30.273438 195.695312 30.324219 195.367188 30.316406 C 195.035156 30.316406 194.707031 30.296875 194.382812 30.261719 C 193.726562 30.222656 193.0625 30.238281 192.402344 30.242188 C 192.003906 30.253906 191.636719 30.707031 191.253906 30.75 C 190.824219 30.824219 190.390625 30.804688 189.957031 30.894531 C 189.523438 30.964844 189.082031 31.015625 188.640625 31.058594 C 188.199219 31.082031 187.769531 31.179688 187.332031 31.253906 L 186.003906 31.480469 L 184.714844 31.859375 C 184.28125 31.992188 183.851562 32.132812 183.460938 32.355469 C 182.726562 32.738281 182.003906 33.140625 181.386719 33.699219 L 180.4375 34.484375 L 179.558594 35.34375 C 179.453125 35.445312 179.324219 35.511719 179.207031 35.601562 C 178.84375 35.851562 178.53125 36.167969 178.21875 36.476562 L 177.265625 37.390625 C 176.976562 37.722656 176.6875 38.050781 176.382812 38.367188 L 175.914062 38.835938 C 175.761719 38.992188 175.628906 39.167969 175.476562 39.328125 C 175.164062 39.671875 174.882812 40.050781 174.625 40.4375 C 174.394531 40.84375 174.214844 41.277344 174.019531 41.699219 L 173.734375 42.328125 C 173.644531 42.539062 173.578125 42.761719 173.496094 42.976562 C 173.332031 43.402344 173.144531 43.816406 172.910156 44.214844 L 172.105469 45.902344 C 171.90625 46.300781 171.816406 46.726562 171.664062 47.144531 C 171.539062 47.5625 171.34375 47.972656 171.269531 48.410156 C 171.105469 49.273438 170.824219 50.136719 170.757812 51.035156 L 170.585938 52.226562 C 170.53125 52.628906 170.550781 53.03125 170.519531 53.4375 Z M 170.511719 53.539062 " fill-opacity="1" fill-rule="nonzero"/></g><path fill="#6ec487" d="M 294.867188 118.75 L 294.886719 118.390625 L 294.878906 118.269531 C 294.882812 118.199219 294.882812 118.132812 294.867188 118.070312 C 294.867188 118.003906 294.859375 117.941406 294.835938 117.878906 C 294.78125 117.632812 294.675781 117.394531 294.519531 117.183594 C 294.308594 116.917969 294.03125 116.683594 293.71875 116.578125 C 293.570312 116.503906 293.398438 116.496094 293.230469 116.460938 C 293.1875 116.460938 293.144531 116.460938 293.097656 116.457031 C 293.0625 116.453125 293.089844 116.445312 292.996094 116.449219 L 291.808594 116.449219 L 284.191406 116.441406 L 268.957031 116.40625 L 238.484375 116.347656 L 195.089844 116.378906 L 173.421875 116.410156 C 166.253906 116.457031 159.035156 116.613281 151.824219 116.78125 C 147.28125 116.886719 142.746094 116.476562 138.175781 116.484375 C 131.5625 116.496094 124.925781 116.636719 118.292969 116.808594 C 112.976562 116.945312 107.65625 117.203125 102.339844 117.378906 C 102 117.390625 101.675781 117.390625 101.351562 117.390625 L 101.347656 117.398438 L 87.203125 119.589844 C 87.183594 119.867188 87.183594 120.136719 87.234375 120.398438 C 87.246094 120.554688 87.296875 120.710938 87.335938 120.863281 L 87.503906 121.71875 C 87.988281 124.234375 88.429688 126.777344 88.820312 129.351562 C 89.605469 134.5 90.207031 139.777344 90.582031 145.214844 C 91.601562 160.1875 92.625 175.160156 93.648438 190.136719 C 94.636719 205.125 95.65625 220.085938 96.414062 235.15625 C 96.550781 238.179688 96.691406 241.183594 96.734375 244.34375 C 96.769531 245.839844 96.769531 247.21875 96.828125 248.703125 L 97.007812 253.128906 C 97.289062 259.058594 97.667969 265.015625 98.066406 270.96875 C 98.867188 282.878906 99.796875 294.792969 100.746094 306.695312 C 101.265625 313.148438 101.785156 319.601562 102.375 326.035156 C 102.953125 332.472656 103.574219 338.90625 104.34375 345.261719 C 104.539062 346.847656 104.71875 348.449219 104.960938 349.992188 L 105.304688 352.328125 L 105.347656 352.621094 L 105.371094 352.765625 L 105.382812 352.824219 C 105.40625 352.898438 105.402344 352.984375 105.433594 353.058594 C 105.476562 353.210938 105.527344 353.359375 105.59375 353.503906 C 105.859375 354.074219 106.34375 354.558594 106.925781 354.820312 C 107.21875 354.953125 107.53125 355.035156 107.863281 355.058594 L 107.988281 355.070312 L 108.285156 355.074219 L 108.890625 355.078125 L 110.105469 355.09375 L 129.554688 355.292969 C 131.21875 355.308594 132.917969 355.417969 134.542969 355.332031 C 155.113281 354.222656 175.722656 355.335938 196.316406 355.164062 C 209.925781 355.085938 223.542969 355.011719 237.160156 354.9375 C 243.90625 354.804688 250.644531 354.527344 257.339844 354 C 260.6875 353.734375 264.027344 353.417969 267.332031 353 L 269.804688 352.671875 L 271.035156 352.496094 C 271.160156 352.476562 271.195312 352.46875 271.234375 352.460938 L 271.363281 352.4375 C 271.449219 352.417969 271.527344 352.382812 271.613281 352.367188 C 272.269531 352.160156 272.828125 351.691406 273.167969 351.101562 C 273.285156 350.878906 273.375 350.648438 273.4375 350.40625 C 273.46875 350.28125 273.492188 350.15625 273.503906 350.027344 C 273.511719 350.007812 273.527344 349.789062 273.539062 349.648438 L 273.574219 349.183594 L 273.863281 345.449219 L 274.460938 337.984375 L 275.703125 323.0625 L 278.273438 293.21875 C 278.613281 289.261719 279.050781 285.054688 278.890625 281.355469 C 278.574219 273.8125 279.148438 266.207031 279.753906 258.597656 C 281.117188 241.296875 282.695312 224.011719 284.277344 206.710938 L 285.386719 194.984375 L 286.570312 183.25 L 287.890625 171.488281 L 288.671875 165.570312 L 288.867188 164.089844 L 289.121094 162.566406 L 289.644531 159.515625 L 289.910156 158 L 290.195312 156.59375 C 290.390625 155.65625 290.578125 154.714844 290.75 153.773438 C 291.113281 151.890625 291.441406 150.003906 291.753906 148.109375 C 292.375 144.320312 292.90625 140.515625 293.355469 136.695312 C 293.804688 132.878906 294.179688 129.050781 294.464844 125.214844 C 294.609375 123.300781 294.726562 121.382812 294.832031 119.46875 Z M 143.277344 316.25 C 143.332031 317.238281 143.5 318.222656 143.585938 319.210938 C 143.652344 320.011719 142.878906 320.714844 141.722656 321.332031 C 140.65625 321.902344 139.367188 321.984375 138.316406 321.578125 C 136.464844 320.863281 135.875 319.773438 135.695312 318.585938 C 135.503906 317.347656 135.460938 316.089844 135.238281 314.855469 C 134.789062 312.394531 134.242188 309.945312 133.773438 307.488281 C 133.703125 307.121094 133.769531 306.738281 133.738281 306.363281 C 133.378906 302.320312 132.988281 298.277344 132.710938 294.226562 C 132.511719 291.367188 132.5 288.488281 132.3125 285.625 C 132.167969 283.460938 131.832031 281.3125 131.675781 279.148438 C 131.492188 276.65625 131.476562 274.152344 131.308594 271.660156 C 131.136719 269.039062 131.105469 266.40625 130.617188 263.8125 C 130.078125 260.910156 130.03125 257.980469 129.796875 255.054688 C 129.726562 254.1875 129.296875 253.339844 129.230469 252.472656 C 129.082031 250.539062 129.023438 248.601562 129 246.660156 C 128.960938 242.828125 129.089844 239.003906 129 235.125 C 128.976562 234.234375 128.957031 233.316406 128.910156 232.414062 C 128.863281 231.515625 128.820312 230.761719 128.746094 229.90625 L 128.253906 224.796875 C 128.226562 224.488281 128.234375 224.179688 128.222656 223.871094 C 128.058594 220.109375 127.703125 216.335938 127.671875 212.546875 C 127.632812 208.523438 126.769531 204.554688 126.65625 200.53125 L 126.574219 196.421875 L 126.257812 184.878906 C 126.191406 181.464844 126.167969 178.050781 126.152344 174.632812 C 126.140625 172.34375 126.28125 170.046875 126.167969 167.761719 C 126.074219 165.839844 125.675781 163.9375 125.484375 162.023438 C 125.40625 161.21875 125.527344 160.398438 125.539062 159.585938 C 125.550781 158.523438 130.917969 158.742188 131.488281 159.371094 C 133.085938 161.128906 134.070312 162.992188 134.132812 165.03125 C 134.316406 170.648438 134.574219 176.261719 134.910156 181.867188 C 135.175781 186.339844 135.722656 190.796875 135.925781 195.277344 C 136.148438 200.136719 136.113281 205.015625 136.167969 209.886719 C 136.171875 210.199219 136.082031 210.523438 136.1875 210.824219 C 137.53125 214.609375 136.648438 218.542969 137.015625 222.410156 C 137.261719 224.972656 137.414062 227.546875 137.484375 230.179688 L 137.511719 234.023438 L 137.566406 237.777344 C 137.65625 241.472656 137.519531 245.195312 137.582031 248.917969 C 137.59375 249.660156 137.523438 250.453125 138.011719 251.109375 C 139.003906 252.449219 139.117188 253.867188 139.226562 255.285156 C 139.472656 258.503906 139.578125 261.738281 139.828125 264.964844 C 140.28125 270.792969 140.859375 276.613281 141.351562 282.4375 C 141.675781 286.21875 141.851562 290.011719 142.171875 293.792969 C 142.617188 299.175781 143.179688 304.546875 143.648438 309.925781 C 143.722656 310.769531 143.273438 311.660156 143.226562 312.523438 C 143.164062 313.769531 143.203125 315.011719 143.277344 316.25 Z M 196.191406 306.398438 C 196.007812 307.585938 195.9375 308.773438 195.886719 309.960938 C 195.84375 310.914062 195.910156 311.867188 195.898438 312.820312 C 195.882812 313.59375 195.042969 314.1875 193.828125 314.664062 C 192.710938 315.097656 191.421875 315.046875 190.417969 314.558594 C 188.648438 313.699219 188.171875 312.613281 188.109375 311.472656 C 188.042969 310.28125 188.128906 309.085938 188.019531 307.894531 C 187.800781 305.523438 187.492188 303.152344 187.242188 300.78125 C 187.203125 300.429688 187.300781 300.070312 187.300781 299.714844 C 187.304688 295.847656 187.257812 291.980469 187.304688 288.113281 C 187.339844 285.378906 187.550781 282.644531 187.582031 279.910156 C 187.605469 277.839844 187.425781 275.773438 187.429688 273.703125 C 187.433594 271.324219 187.582031 268.941406 187.589844 266.558594 C 187.601562 264.058594 187.742188 261.546875 187.421875 259.054688 C 187.066406 256.261719 187.210938 253.472656 187.144531 250.679688 C 187.121094 249.851562 186.746094 249.023438 186.726562 248.195312 C 186.683594 246.351562 186.734375 244.507812 186.808594 242.664062 C 186.953125 239.035156 187.269531 235.402344 187.273438 231.773438 C 187.273438 228.445312 186.953125 225.121094 186.777344 221.792969 C 186.761719 221.496094 186.789062 221.199219 186.789062 220.902344 C 186.792969 217.269531 186.652344 213.640625 186.835938 210.011719 C 187.035156 206.160156 186.414062 202.316406 186.554688 198.464844 C 186.605469 197.15625 186.6875 195.847656 186.742188 194.539062 C 186.890625 190.859375 187.011719 187.179688 187.191406 183.503906 C 187.355469 180.242188 187.566406 176.980469 187.789062 173.722656 C 187.9375 171.539062 188.234375 169.355469 188.28125 167.171875 C 188.320312 165.332031 188.058594 163.492188 188.007812 161.652344 C 187.984375 160.882812 188.167969 160.109375 188.234375 159.335938 C 188.324219 158.320312 193.660156 158.894531 194.183594 159.53125 C 195.652344 161.316406 196.5 163.15625 196.421875 165.105469 C 196.207031 170.46875 196.074219 175.828125 196.023438 181.191406 C 195.988281 185.46875 196.234375 189.75 196.144531 194.027344 C 196.046875 198.667969 195.707031 203.308594 195.472656 207.949219 C 195.457031 208.246094 195.347656 208.550781 195.4375 208.84375 C 196.554688 212.519531 195.457031 216.210938 195.640625 219.894531 C 195.882812 224.777344 195.828125 229.660156 195.757812 234.542969 C 195.707031 238.109375 195.402344 241.675781 195.257812 245.246094 C 195.226562 245.953125 195.117188 246.710938 195.566406 247.363281 C 196.484375 248.699219 196.515625 250.0625 196.539062 251.425781 C 196.601562 254.523438 196.5 257.621094 196.539062 260.722656 C 196.609375 266.320312 196.773438 271.921875 196.832031 277.523438 C 196.871094 281.15625 196.757812 284.792969 196.769531 288.425781 C 196.78125 293.601562 196.875 298.78125 196.851562 303.957031 C 196.851562 304.769531 196.316406 305.582031 196.191406 306.398438 Z M 262.378906 162.75 C 262.296875 163.945312 262.0625 165.125 262.027344 166.328125 C 261.976562 168.726562 262.019531 171.132812 262 173.53125 C 261.996094 173.890625 261.859375 174.238281 261.820312 174.59375 L 260.605469 186.234375 C 260.300781 188.976562 259.808594 191.699219 259.515625 194.445312 C 259.292969 196.523438 259.277344 198.621094 259.070312 200.699219 C 258.835938 203.089844 258.472656 205.476562 258.238281 207.871094 C 257.996094 210.386719 257.621094 212.898438 257.714844 215.4375 C 257.820312 218.28125 257.421875 221.074219 257.238281 223.890625 C 257.183594 224.726562 257.488281 225.59375 257.433594 226.429688 C 257.3125 228.289062 257.101562 230.140625 256.867188 231.992188 C 256.398438 235.632812 255.777344 239.261719 255.460938 242.917969 C 255.167969 246.265625 255.210938 249.644531 255.101562 253.011719 C 255.09375 253.3125 255.042969 253.609375 255.015625 253.910156 C 254.703125 257.5625 254.546875 261.234375 254.0625 264.875 C 253.542969 268.738281 253.851562 272.664062 253.390625 276.53125 L 252.890625 280.472656 L 251.550781 291.5625 C 251.132812 294.835938 250.65625 298.105469 250.179688 301.371094 C 249.859375 303.5625 249.390625 305.738281 249.171875 307.9375 C 248.988281 309.789062 249.105469 311.664062 249.015625 313.523438 C 248.976562 314.300781 248.734375 315.066406 248.609375 315.84375 C 248.441406 316.855469 243.164062 315.867188 242.691406 315.183594 C 241.367188 313.273438 240.664062 311.347656 240.894531 309.390625 C 241.53125 303.996094 242.082031 298.597656 242.558594 293.191406 C 242.9375 288.878906 243.039062 284.542969 243.472656 280.234375 C 243.945312 275.558594 244.664062 270.90625 245.28125 266.246094 C 245.320312 265.945312 245.453125 265.648438 245.390625 265.347656 C 244.582031 261.546875 245.980469 257.914062 246.109375 254.183594 C 246.277344 249.242188 246.746094 244.320312 247.242188 239.402344 C 247.601562 235.808594 248.214844 232.238281 248.675781 228.652344 C 248.765625 227.941406 248.941406 227.1875 248.554688 226.488281 C 247.757812 225.058594 247.847656 223.683594 247.941406 222.308594 C 248.164062 219.175781 248.546875 216.058594 248.785156 212.929688 C 249.234375 207.277344 249.585938 201.613281 250.078125 195.957031 C 250.386719 192.289062 250.863281 188.632812 251.222656 184.964844 L 251.976562 177.121094 C 252.226562 174.507812 252.492188 171.890625 252.804688 169.277344 C 252.902344 168.453125 253.523438 167.691406 253.742188 166.878906 C 254.054688 165.707031 254.265625 164.511719 254.46875 163.316406 C 254.632812 162.359375 254.679688 161.386719 254.816406 160.425781 C 254.921875 159.648438 255.832031 159.152344 257.09375 158.832031 C 258.257812 158.535156 259.53125 158.753906 260.464844 159.371094 C 262.117188 160.460938 262.457031 161.601562 262.378906 162.75 Z M 306.027344 49.855469 C 305.773438 49.808594 305.496094 49.800781 305.167969 49.863281 C 303.816406 50.132812 302.453125 50.375 301.09375 50.628906 C 301.09375 50.628906 301.089844 50.628906 301.089844 50.628906 C 299.839844 50.859375 298.59375 51.105469 297.355469 51.398438 C 291.203125 52.84375 285.097656 54.507812 278.929688 55.875 C 271.609375 57.503906 264.238281 58.886719 256.898438 60.4375 C 245.945312 62.746094 234.988281 65.074219 224.050781 67.488281 C 217.882812 68.84375 211.714844 70.226562 205.550781 71.625 L 187.066406 75.835938 C 182.679688 76.84375 178.285156 77.800781 173.902344 78.835938 C 161.015625 81.839844 148.339844 85.613281 135.453125 88.703125 C 129.386719 90.179688 123.332031 91.683594 117.296875 93.324219 L 108.246094 95.761719 L 99.199219 98.285156 C 98.210938 98.5625 97.214844 98.8125 96.230469 99.105469 C 93.476562 99.894531 90.730469 100.785156 87.984375 101.664062 L 83.867188 102.980469 L 81.808594 103.636719 L 81.335938 103.785156 C 81.289062 103.792969 81.246094 103.808594 81.203125 103.828125 C 81.164062 103.851562 81.117188 103.835938 81.074219 103.855469 C 81.035156 103.871094 80.988281 103.878906 80.945312 103.871094 C 80.769531 103.902344 80.578125 103.882812 80.367188 103.820312 C 80.160156 103.761719 79.929688 103.679688 79.71875 103.523438 C 79.277344 103.238281 78.917969 102.777344 78.714844 102.285156 C 78.695312 102.21875 78.679688 102.15625 78.65625 102.09375 C 78.640625 102.042969 78.636719 102.070312 78.613281 101.960938 L 78.546875 101.699219 L 78.28125 100.660156 L 77.753906 98.582031 L 76.71875 94.421875 L 75.617188 89.875 L 75.34375 88.734375 L 75.210938 88.167969 C 75.191406 88.089844 75.152344 87.9375 75.15625 87.917969 L 75.140625 87.8125 C 75.097656 87.527344 75.082031 87.25 75.136719 86.980469 C 75.246094 86.441406 75.527344 85.917969 75.945312 85.566406 C 76.152344 85.390625 76.382812 85.257812 76.632812 85.15625 C 76.761719 85.101562 76.875 85.085938 76.976562 85.050781 L 78.078125 84.816406 L 96.363281 80.941406 C 102.550781 79.601562 108.734375 78.222656 114.890625 76.757812 C 117.667969 76.101562 120.351562 75.085938 123.125 74.421875 C 132.449219 72.195312 141.8125 70.144531 151.074219 67.605469 C 159.34375 65.324219 167.765625 63.488281 176.128906 61.496094 C 184.089844 59.613281 192.078125 57.839844 200.03125 55.917969 C 206.941406 54.261719 213.796875 52.367188 220.707031 50.707031 L 234.417969 47.4375 C 238.992188 46.355469 243.570312 45.28125 248.125 44.121094 C 254.574219 42.492188 261.019531 40.859375 267.449219 39.132812 L 277.097656 36.5625 L 286.738281 33.898438 C 287.921875 33.570312 289.132812 33.339844 290.304688 32.976562 L 301.996094 29.125 L 302.167969 29.070312 L 302.226562 29.050781 C 302.265625 29.039062 302.304688 29.027344 302.34375 29.007812 C 302.417969 28.976562 302.5 28.980469 302.578125 28.949219 C 302.65625 28.941406 302.738281 28.933594 302.820312 28.917969 C 302.90625 28.933594 302.988281 28.910156 303.078125 28.925781 C 303.425781 28.953125 303.816406 29.078125 304.1875 29.304688 C 304.5625 29.527344 304.902344 29.855469 305.148438 30.242188 C 305.265625 30.433594 305.382812 30.632812 305.457031 30.847656 L 305.515625 31.007812 C 305.539062 31.0625 305.582031 31.234375 305.613281 31.34375 L 305.816406 32.082031 C 306.894531 36.027344 307.792969 40.035156 308.832031 44 C 308.941406 44.414062 309.054688 44.828125 309.167969 45.234375 C 309.203125 45.34375 309.238281 45.453125 309.253906 45.5625 C 309.285156 45.671875 309.308594 45.78125 309.320312 45.894531 C 309.378906 46.25 309.398438 46.628906 309.390625 47.023438 C 308.636719 48.460938 307.359375 49.332031 306.027344 49.855469 Z M 306.027344 49.855469 " fill-opacity="1" fill-rule="nonzero"/><g clip-path="url(#dd71ab1c51)"><path fill="#000000" d="M 303.496094 114.402344 C 303.074219 113.304688 302.488281 112.273438 301.765625 111.355469 C 300.296875 109.535156 298.261719 108.164062 295.992188 107.566406 C 295.429688 107.398438 294.851562 107.3125 294.273438 107.234375 C 293.984375 107.207031 293.695312 107.195312 293.40625 107.179688 L 293 107.167969 L 292.726562 107.167969 L 290.5625 107.171875 L 286.226562 107.171875 L 240.386719 106.871094 L 175.542969 106.835938 C 173.539062 106.84375 171.523438 106.75 169.535156 106.816406 C 156.214844 107.230469 142.976562 107.925781 129.714844 108.554688 C 123.0625 108.871094 116.386719 109.011719 109.730469 109.3125 C 107.648438 109.402344 105.605469 109.550781 103.625 109.761719 L 103.625 109.753906 L 88.492188 111.15625 C 88.429688 111.152344 88.378906 111.144531 88.3125 111.144531 C 87.984375 111.132812 87.617188 111.195312 87.203125 111.277344 C 86.804688 111.394531 86.34375 111.523438 85.890625 111.777344 C 84.476562 112.507812 83.222656 113.550781 82.289062 114.851562 C 81.351562 116.144531 80.710938 117.671875 80.460938 119.265625 C 80.402344 119.664062 80.367188 120.070312 80.34375 120.46875 L 80.347656 121.074219 C 80.351562 121.257812 80.355469 121.511719 80.363281 121.617188 L 80.460938 123.234375 C 80.53125 124.3125 80.605469 125.390625 80.695312 126.464844 C 81.550781 136.726562 82.597656 146.972656 83.332031 157.238281 C 84.199219 169.421875 84.800781 181.617188 85.515625 193.804688 C 86.046875 202.902344 86.570312 212.003906 87.035156 221.09375 C 87.265625 225.636719 87.492188 230.183594 87.675781 234.710938 C 87.78125 236.980469 87.832031 239.222656 87.90625 241.464844 L 87.96875 248.296875 C 88.242188 258.730469 88.824219 269 89.445312 279.3125 C 90.082031 289.613281 90.804688 299.902344 91.601562 310.195312 C 92.167969 317.519531 92.761719 324.847656 93.46875 332.183594 C 93.738281 334.882812 94.003906 337.574219 94.335938 340.277344 L 94.824219 344.328125 L 95.382812 348.398438 C 95.554688 349.746094 95.808594 351.132812 96.03125 352.503906 L 96.199219 353.535156 L 96.285156 354.050781 L 96.332031 354.308594 C 96.339844 354.375 96.382812 354.570312 96.410156 354.691406 C 96.640625 355.820312 97.050781 356.921875 97.609375 357.933594 C 98.71875 359.96875 100.4375 361.65625 102.484375 362.714844 C 103.507812 363.246094 104.605469 363.644531 105.738281 363.847656 C 106.832031 364.070312 108.214844 364.066406 108.679688 364.050781 C 119.433594 363.941406 130.183594 363.84375 140.949219 363.945312 C 161.21875 364.144531 181.511719 364.011719 201.792969 364.027344 L 206.785156 364.039062 L 220.726562 363.898438 C 225.375 363.839844 230.007812 363.808594 234.722656 363.707031 C 244.121094 363.492188 253.523438 363.007812 262.949219 362.070312 C 265.519531 361.8125 268.09375 361.519531 270.675781 361.164062 L 271.648438 361.027344 L 272.132812 360.957031 C 272.300781 360.933594 272.417969 360.921875 272.714844 360.863281 C 273.734375 360.695312 274.734375 360.363281 275.675781 359.914062 C 277.566406 359.015625 279.183594 357.566406 280.308594 355.792969 C 280.878906 354.910156 281.3125 353.9375 281.609375 352.929688 C 281.765625 352.429688 281.863281 351.910156 281.949219 351.394531 L 282.039062 350.617188 L 282.082031 350.128906 L 282.386719 346.335938 L 283.011719 338.746094 L 285.578125 308.394531 C 286.4375 298.125 287.285156 287.847656 288.066406 277.566406 C 288.417969 272.941406 288.402344 268.289062 288.769531 263.664062 C 289.964844 248.097656 291.429688 232.570312 292.488281 216.988281 C 293.4375 203.074219 294.902344 189.117188 296.558594 175.304688 C 296.738281 173.652344 296.960938 172.023438 297.191406 170.398438 L 297.871094 165.519531 L 298.710938 160.820312 C 298.835938 160.058594 299.03125 159.203125 299.203125 158.378906 C 299.382812 157.546875 299.558594 156.71875 299.722656 155.886719 C 301.066406 149.230469 302.101562 142.527344 302.875 135.804688 C 303.210938 132.882812 303.480469 129.953125 303.707031 127.023438 C 303.816406 125.558594 303.914062 124.089844 304 122.621094 L 304.121094 120.417969 L 304.171875 119.3125 L 304.195312 118.726562 L 304.191406 117.847656 C 304.128906 116.679688 303.910156 115.507812 303.496094 114.402344 Z M 293.355469 136.699219 C 292.90625 140.515625 292.375 144.324219 291.753906 148.109375 C 291.441406 150.003906 291.113281 151.894531 290.75 153.777344 C 290.578125 154.71875 290.390625 155.65625 290.195312 156.59375 L 289.910156 158.003906 L 289.644531 159.519531 L 289.121094 162.570312 L 288.867188 164.09375 L 288.671875 165.570312 L 287.890625 171.488281 L 286.570312 183.25 L 285.386719 194.984375 L 284.277344 206.714844 C 282.695312 224.011719 281.117188 241.300781 279.753906 258.597656 C 279.148438 266.207031 278.574219 273.8125 278.890625 281.359375 C 279.050781 285.054688 278.613281 289.265625 278.273438 293.222656 L 275.703125 323.0625 L 274.460938 337.988281 L 273.863281 345.453125 L 273.574219 349.183594 L 273.539062 349.652344 C 273.527344 349.792969 273.511719 350.011719 273.503906 350.03125 C 273.492188 350.160156 273.46875 350.285156 273.441406 350.40625 C 273.375 350.648438 273.285156 350.882812 273.167969 351.101562 C 272.828125 351.695312 272.269531 352.160156 271.613281 352.371094 C 271.527344 352.386719 271.449219 352.421875 271.363281 352.4375 L 271.234375 352.460938 C 271.195312 352.46875 271.160156 352.480469 271.035156 352.496094 L 269.804688 352.675781 L 267.332031 353 C 264.027344 353.417969 260.6875 353.734375 257.339844 354 C 250.648438 354.53125 243.90625 354.808594 237.160156 354.9375 C 223.542969 355.015625 209.925781 355.089844 196.316406 355.164062 C 175.722656 355.335938 155.113281 354.226562 134.542969 355.335938 C 132.917969 355.421875 131.21875 355.3125 129.554688 355.296875 L 110.105469 355.09375 L 108.890625 355.082031 L 108.285156 355.074219 L 107.988281 355.070312 L 107.863281 355.058594 C 107.53125 355.035156 107.21875 354.957031 106.925781 354.824219 C 106.34375 354.558594 105.859375 354.078125 105.59375 353.503906 C 105.527344 353.363281 105.476562 353.214844 105.433594 353.058594 C 105.402344 352.984375 105.40625 352.902344 105.382812 352.824219 L 105.371094 352.765625 L 105.347656 352.621094 L 105.304688 352.332031 L 104.960938 349.996094 C 104.71875 348.449219 104.539062 346.851562 104.34375 345.265625 C 103.574219 338.910156 102.953125 332.476562 102.375 326.039062 C 101.785156 319.605469 101.265625 313.148438 100.746094 306.695312 C 99.796875 294.796875 98.867188 282.882812 98.066406 270.972656 C 97.667969 265.019531 97.289062 259.0625 97.007812 253.132812 L 96.828125 248.707031 C 96.773438 247.222656 96.769531 245.839844 96.734375 244.34375 C 96.691406 241.183594 96.550781 238.183594 96.414062 235.160156 C 95.65625 220.085938 94.636719 205.125 93.648438 190.140625 C 92.625 175.164062 91.601562 160.191406 90.582031 145.21875 C 90.207031 139.777344 89.605469 134.503906 88.820312 129.355469 C 88.429688 126.78125 87.988281 124.238281 87.503906 121.722656 L 87.335938 120.867188 C 87.296875 120.714844 87.246094 120.558594 87.234375 120.402344 C 87.183594 120.136719 87.183594 119.867188 87.203125 119.59375 L 101.347656 117.402344 L 101.351562 117.390625 C 101.675781 117.390625 102 117.394531 102.339844 117.382812 C 107.65625 117.207031 112.976562 116.945312 118.292969 116.808594 C 124.925781 116.640625 131.5625 116.496094 138.175781 116.484375 C 142.746094 116.480469 147.285156 116.886719 151.824219 116.78125 C 159.035156 116.613281 166.253906 116.460938 173.421875 116.410156 L 195.089844 116.382812 L 238.484375 116.347656 L 268.957031 116.410156 L 284.191406 116.441406 L 291.808594 116.449219 L 292.996094 116.449219 C 293.089844 116.449219 293.0625 116.457031 293.097656 116.457031 C 293.144531 116.464844 293.1875 116.464844 293.230469 116.460938 C 293.398438 116.496094 293.570312 116.503906 293.71875 116.582031 C 294.03125 116.6875 294.308594 116.921875 294.519531 117.1875 C 294.675781 117.398438 294.78125 117.632812 294.835938 117.882812 C 294.859375 117.941406 294.867188 118.003906 294.867188 118.074219 C 294.882812 118.136719 294.882812 118.203125 294.878906 118.273438 L 294.886719 118.390625 L 294.867188 118.75 L 294.832031 119.46875 C 294.726562 121.386719 294.609375 123.304688 294.464844 125.21875 C 294.179688 129.050781 293.804688 132.882812 293.355469 136.699219 Z M 316.933594 44.992188 C 316.902344 44.671875 316.882812 44.347656 316.816406 44.035156 L 316.722656 43.5625 C 316.691406 43.417969 316.652344 43.214844 316.632812 43.140625 L 316.332031 41.949219 C 315.929688 40.359375 315.535156 38.769531 315.164062 37.175781 L 313.804688 31.203125 L 313.480469 29.707031 L 313.398438 29.332031 C 313.371094 29.210938 313.351562 29.097656 313.289062 28.875 C 313.175781 28.484375 313.085938 28.085938 312.933594 27.714844 C 312.375 26.191406 311.5 24.792969 310.371094 23.621094 C 308.820312 22.003906 306.792969 20.726562 304.402344 20.183594 C 303.207031 19.929688 301.945312 19.875 300.699219 20.042969 C 299.230469 20.320312 298.855469 20.449219 298.128906 20.648438 C 281.261719 25.675781 264.09375 30.246094 246.910156 34.648438 C 240.882812 36.214844 234.824219 37.683594 228.773438 39.179688 L 220.058594 41.320312 C 218.972656 38.128906 217.375 35.0625 215.328125 32.257812 C 213.875 30.175781 212.113281 28.238281 210.097656 26.589844 C 206.933594 24.097656 203.125 22.398438 199.203125 21.5625 L 197.574219 21.210938 L 195.925781 20.996094 C 194.828125 20.816406 193.726562 20.820312 192.628906 20.839844 C 191.660156 20.820312 190.691406 21.003906 189.878906 21.984375 C 189.488281 22.472656 188.972656 22.398438 188.503906 22.472656 C 187.324219 22.632812 186.109375 22.699219 184.945312 22.980469 C 184.355469 23.101562 183.765625 23.222656 183.179688 23.363281 C 182.605469 23.546875 182.035156 23.742188 181.472656 23.953125 C 178.402344 25.140625 175.476562 26.828125 173.101562 29.128906 C 172.667969 29.574219 172.191406 29.976562 171.695312 30.355469 C 171.191406 30.734375 170.671875 31.097656 170.226562 31.539062 C 169.761719 31.96875 169.320312 32.421875 168.949219 32.929688 C 168.578125 33.441406 168.335938 34.054688 168.1875 34.710938 C 168.144531 34.921875 167.933594 35.023438 167.800781 35.175781 C 165.824219 37.605469 164.066406 40.355469 163.007812 43.433594 C 162.109375 46.296875 161.890625 49.320312 161.886719 52.292969 C 161.910156 53.390625 161.960938 54.496094 162.0625 55.589844 C 159.585938 56.1875 157.109375 56.792969 154.632812 57.386719 C 144.292969 59.871094 133.914062 62.195312 123.570312 64.65625 C 119.019531 65.742188 114.472656 66.828125 110.203125 68.753906 C 108.109375 69.699219 105.554688 70.175781 103.179688 70.695312 L 85.21875 74.515625 L 76.226562 76.421875 L 75.082031 76.667969 C 75.015625 76.679688 74.804688 76.738281 74.675781 76.773438 L 74.226562 76.90625 C 73.921875 76.988281 73.644531 77.105469 73.367188 77.21875 C 72.246094 77.679688 71.191406 78.316406 70.285156 79.125 C 68.472656 80.738281 67.191406 82.941406 66.757812 85.347656 C 66.667969 85.757812 66.640625 86.175781 66.59375 86.589844 C 66.570312 87.007812 66.566406 87.425781 66.574219 87.84375 C 66.609375 88.257812 66.628906 88.679688 66.703125 89.085938 L 66.820312 89.699219 L 66.878906 89.996094 L 66.925781 90.1875 L 67.664062 93.25 L 69.144531 99.367188 L 69.886719 102.425781 L 70.261719 103.953125 C 70.28125 104.050781 70.347656 104.289062 70.40625 104.480469 L 70.585938 105.078125 C 70.726562 105.46875 70.890625 105.855469 71.058594 106.234375 C 72.492188 109.214844 75.191406 111.574219 78.597656 112.351562 C 80.285156 112.742188 82.128906 112.691406 83.8125 112.191406 L 86.863281 111.273438 L 92.828125 109.457031 L 95.8125 108.546875 L 98.816406 107.675781 L 104.824219 105.921875 C 106.335938 105.476562 107.851562 105.046875 109.371094 104.636719 L 113.964844 103.480469 L 123.167969 101.242188 C 129.300781 99.746094 135.421875 98.191406 141.390625 96.070312 C 142.335938 95.734375 143.375 95.59375 144.371094 95.355469 C 159.859375 91.707031 175.386719 88.21875 190.894531 84.597656 C 205.179688 81.238281 219.417969 77.621094 233.71875 74.300781 C 251.644531 70.15625 269.601562 66.136719 287.585938 62.257812 C 292.554688 61.183594 297.207031 59.636719 301.640625 57.734375 L 310.667969 54.082031 C 311.53125 54.003906 312.457031 53.722656 313.355469 53.167969 C 313.554688 53.046875 313.75 52.90625 313.941406 52.757812 L 313.945312 52.757812 L 313.945312 52.753906 C 314.40625 52.394531 314.84375 51.957031 315.25 51.449219 C 315.789062 50.714844 316.28125 49.84375 316.558594 48.832031 C 316.914062 47.589844 317.039062 46.28125 316.933594 44.992188 Z M 306.027344 49.855469 C 305.773438 49.808594 305.496094 49.800781 305.167969 49.863281 C 303.816406 50.132812 302.453125 50.375 301.09375 50.628906 C 301.09375 50.628906 301.089844 50.628906 301.089844 50.628906 C 299.839844 50.859375 298.59375 51.105469 297.355469 51.398438 C 291.203125 52.84375 285.097656 54.507812 278.929688 55.875 C 271.609375 57.503906 264.238281 58.886719 256.898438 60.4375 C 245.945312 62.746094 234.988281 65.074219 224.050781 67.488281 C 217.882812 68.84375 211.714844 70.226562 205.550781 71.625 L 187.066406 75.835938 C 182.679688 76.84375 178.285156 77.800781 173.902344 78.835938 C 161.015625 81.839844 148.339844 85.613281 135.453125 88.703125 C 129.386719 90.179688 123.332031 91.683594 117.296875 93.324219 L 108.246094 95.761719 L 99.199219 98.285156 C 98.210938 98.5625 97.214844 98.8125 96.230469 99.105469 C 93.476562 99.894531 90.730469 100.785156 87.984375 101.664062 L 83.867188 102.980469 L 81.808594 103.636719 L 81.335938 103.785156 C 81.289062 103.792969 81.246094 103.808594 81.203125 103.828125 C 81.164062 103.851562 81.117188 103.835938 81.074219 103.855469 C 81.035156 103.871094 80.988281 103.878906 80.945312 103.871094 C 80.769531 103.902344 80.578125 103.882812 80.367188 103.820312 C 80.160156 103.761719 79.929688 103.679688 79.71875 103.523438 C 79.277344 103.238281 78.917969 102.777344 78.714844 102.285156 C 78.695312 102.21875 78.679688 102.15625 78.65625 102.09375 C 78.640625 102.042969 78.636719 102.070312 78.613281 101.960938 L 78.546875 101.699219 L 78.28125 100.660156 L 77.753906 98.582031 L 76.71875 94.421875 L 75.617188 89.875 L 75.34375 88.734375 L 75.210938 88.167969 C 75.191406 88.089844 75.152344 87.9375 75.15625 87.917969 L 75.140625 87.8125 C 75.097656 87.527344 75.082031 87.25 75.136719 86.980469 C 75.246094 86.441406 75.527344 85.917969 75.945312 85.566406 C 76.152344 85.390625 76.382812 85.257812 76.632812 85.15625 C 76.761719 85.101562 76.875 85.085938 76.976562 85.050781 L 78.078125 84.816406 L 96.363281 80.941406 C 102.550781 79.601562 108.734375 78.222656 114.890625 76.757812 C 117.667969 76.101562 120.351562 75.085938 123.125 74.421875 C 132.449219 72.195312 141.8125 70.144531 151.074219 67.605469 C 159.34375 65.324219 167.765625 63.488281 176.128906 61.496094 C 184.089844 59.613281 192.078125 57.839844 200.03125 55.917969 C 206.941406 54.261719 213.796875 52.367188 220.707031 50.707031 L 234.417969 47.4375 C 238.992188 46.355469 243.570312 45.28125 248.125 44.121094 C 254.574219 42.492188 261.019531 40.859375 267.449219 39.132812 L 277.097656 36.5625 L 286.738281 33.898438 C 287.921875 33.570312 289.132812 33.339844 290.304688 32.976562 L 301.996094 29.125 L 302.167969 29.070312 L 302.226562 29.050781 C 302.265625 29.039062 302.304688 29.027344 302.34375 29.007812 C 302.417969 28.976562 302.5 28.980469 302.578125 28.949219 C 302.65625 28.941406 302.738281 28.933594 302.820312 28.917969 C 302.90625 28.933594 302.988281 28.910156 303.078125 28.925781 C 303.425781 28.953125 303.816406 29.078125 304.1875 29.304688 C 304.5625 29.527344 304.902344 29.855469 305.148438 30.242188 C 305.265625 30.433594 305.382812 30.632812 305.457031 30.847656 L 305.515625 31.007812 C 305.539062 31.0625 305.582031 31.234375 305.613281 31.34375 L 305.816406 32.082031 C 306.894531 36.027344 307.792969 40.035156 308.832031 44 C 308.941406 44.414062 309.054688 44.828125 309.167969 45.234375 C 309.203125 45.34375 309.238281 45.453125 309.253906 45.5625 C 309.285156 45.671875 309.308594 45.78125 309.320312 45.894531 C 309.378906 46.25 309.398438 46.628906 309.390625 47.023438 C 308.636719 48.460938 307.359375 49.332031 306.027344 49.855469 Z M 170.519531 53.4375 C 170.546875 53.03125 170.53125 52.628906 170.585938 52.226562 L 170.757812 51.035156 C 170.820312 50.136719 171.105469 49.273438 171.269531 48.410156 C 171.339844 47.972656 171.539062 47.5625 171.660156 47.144531 C 171.816406 46.726562 171.90625 46.300781 172.105469 45.902344 L 172.910156 44.214844 C 173.144531 43.816406 173.332031 43.402344 173.492188 42.976562 C 173.578125 42.761719 173.644531 42.539062 173.730469 42.328125 L 174.019531 41.699219 C 174.214844 41.277344 174.394531 40.84375 174.625 40.4375 C 174.882812 40.050781 175.160156 39.671875 175.476562 39.328125 C 175.628906 39.167969 175.761719 38.992188 175.914062 38.835938 L 176.382812 38.367188 C 176.6875 38.050781 176.976562 37.722656 177.265625 37.390625 L 178.21875 36.476562 C 178.53125 36.167969 178.839844 35.851562 179.207031 35.601562 C 179.324219 35.511719 179.453125 35.445312 179.558594 35.34375 L 180.4375 34.484375 L 181.386719 33.699219 C 182.003906 33.140625 182.726562 32.738281 183.457031 32.355469 C 183.851562 32.132812 184.28125 31.992188 184.714844 31.859375 L 186.003906 31.480469 L 187.328125 31.253906 C 187.769531 31.179688 188.199219 31.082031 188.640625 31.058594 C 189.082031 31.015625 189.519531 30.964844 189.957031 30.894531 C 190.390625 30.804688 190.820312 30.824219 191.25 30.75 C 191.636719 30.707031 192.003906 30.253906 192.398438 30.242188 C 193.058594 30.238281 193.726562 30.222656 194.382812 30.261719 C 194.707031 30.296875 195.035156 30.316406 195.367188 30.316406 C 195.695312 30.324219 196.039062 30.273438 196.371094 30.28125 C 196.972656 30.269531 197.582031 30.320312 198.152344 30.492188 C 198.714844 30.695312 199.277344 30.898438 199.828125 31.121094 C 200.335938 31.371094 200.832031 31.648438 201.328125 31.914062 C 201.796875 32.238281 202.253906 32.566406 202.742188 32.855469 C 203.15625 33.113281 203.550781 33.40625 203.980469 33.660156 C 204.1875 33.796875 204.410156 33.910156 204.601562 34.070312 C 204.792969 34.230469 204.980469 34.398438 205.15625 34.574219 C 205.394531 34.804688 205.625 35.042969 205.851562 35.28125 C 206.0625 35.539062 206.253906 35.816406 206.453125 36.082031 L 207.046875 36.878906 C 207.234375 37.15625 207.402344 37.445312 207.59375 37.71875 C 208.703125 39.234375 209.609375 40.941406 210.386719 42.714844 C 210.449219 42.886719 210.417969 43.089844 210.515625 43.246094 C 210.589844 43.367188 210.675781 43.488281 210.753906 43.609375 L 210.617188 43.640625 C 197.253906 46.957031 183.890625 50.277344 170.511719 53.539062 Z M 262.378906 162.75 C 262.296875 163.945312 262.0625 165.125 262.027344 166.328125 C 261.976562 168.726562 262.019531 171.132812 262 173.53125 C 261.996094 173.890625 261.859375 174.238281 261.820312 174.59375 L 260.605469 186.234375 C 260.300781 188.976562 259.808594 191.699219 259.515625 194.445312 C 259.292969 196.523438 259.277344 198.621094 259.070312 200.699219 C 258.835938 203.089844 258.472656 205.476562 258.238281 207.871094 C 257.996094 210.386719 257.621094 212.898438 257.714844 215.4375 C 257.820312 218.28125 257.421875 221.074219 257.238281 223.890625 C 257.183594 224.726562 257.488281 225.59375 257.433594 226.429688 C 257.3125 228.289062 257.101562 230.140625 256.867188 231.992188 C 256.398438 235.632812 255.777344 239.261719 255.460938 242.917969 C 255.167969 246.265625 255.210938 249.644531 255.101562 253.011719 C 255.09375 253.3125 255.042969 253.609375 255.015625 253.910156 C 254.703125 257.5625 254.546875 261.234375 254.0625 264.875 C 253.542969 268.738281 253.851562 272.664062 253.390625 276.53125 L 252.890625 280.472656 L 251.550781 291.5625 C 251.132812 294.835938 250.65625 298.105469 250.179688 301.371094 C 249.859375 303.5625 249.390625 305.738281 249.171875 307.9375 C 248.988281 309.789062 249.105469 311.664062 249.015625 313.523438 C 248.976562 314.300781 248.734375 315.066406 248.609375 315.84375 C 248.441406 316.855469 243.164062 315.867188 242.691406 315.183594 C 241.367188 313.273438 240.664062 311.347656 240.894531 309.390625 C 241.53125 303.996094 242.082031 298.597656 242.558594 293.191406 C 242.9375 288.878906 243.039062 284.542969 243.472656 280.234375 C 243.945312 275.558594 244.664062 270.90625 245.28125 266.246094 C 245.320312 265.945312 245.453125 265.648438 245.390625 265.347656 C 244.582031 261.546875 245.980469 257.914062 246.109375 254.183594 C 246.277344 249.242188 246.746094 244.320312 247.242188 239.402344 C 247.601562 235.808594 248.214844 232.238281 248.675781 228.652344 C 248.765625 227.941406 248.941406 227.1875 248.554688 226.488281 C 247.757812 225.058594 247.847656 223.683594 247.941406 222.308594 C 248.164062 219.175781 248.546875 216.058594 248.785156 212.929688 C 249.234375 207.277344 249.585938 201.613281 250.078125 195.957031 C 250.386719 192.289062 250.863281 188.632812 251.222656 184.964844 L 251.976562 177.121094 C 252.226562 174.507812 252.492188 171.890625 252.804688 169.277344 C 252.902344 168.453125 253.523438 167.691406 253.742188 166.878906 C 254.054688 165.707031 254.265625 164.511719 254.46875 163.316406 C 254.632812 162.359375 254.679688 161.386719 254.816406 160.425781 C 254.921875 159.648438 255.832031 159.152344 257.09375 158.832031 C 258.257812 158.535156 259.53125 158.753906 260.464844 159.371094 C 262.117188 160.460938 262.457031 161.601562 262.378906 162.75 Z M 143.226562 312.523438 C 143.164062 313.769531 143.203125 315.011719 143.273438 316.25 C 143.332031 317.238281 143.5 318.222656 143.585938 319.210938 C 143.652344 320.011719 142.878906 320.714844 141.71875 321.332031 C 140.65625 321.902344 139.367188 321.984375 138.316406 321.578125 C 136.464844 320.863281 135.875 319.773438 135.695312 318.585938 C 135.503906 317.347656 135.460938 316.089844 135.238281 314.855469 C 134.789062 312.394531 134.238281 309.945312 133.773438 307.488281 C 133.703125 307.121094 133.769531 306.738281 133.734375 306.363281 C 133.375 302.320312 132.988281 298.277344 132.710938 294.226562 C 132.511719 291.367188 132.5 288.488281 132.3125 285.625 C 132.167969 283.460938 131.832031 281.3125 131.675781 279.148438 C 131.492188 276.65625 131.476562 274.152344 131.308594 271.660156 C 131.136719 269.039062 131.105469 266.40625 130.617188 263.8125 C 130.078125 260.910156 130.03125 257.980469 129.796875 255.054688 C 129.726562 254.1875 129.296875 253.339844 129.226562 252.472656 C 129.082031 250.539062 129.023438 248.601562 129 246.660156 C 128.960938 242.828125 129.089844 239.003906 129 235.125 C 128.976562 234.234375 128.957031 233.316406 128.910156 232.414062 C 128.863281 231.515625 128.816406 230.761719 128.746094 229.90625 L 128.253906 224.796875 C 128.222656 224.488281 128.234375 224.179688 128.222656 223.871094 C 128.058594 220.109375 127.703125 216.335938 127.671875 212.546875 C 127.632812 208.523438 126.769531 204.554688 126.652344 200.53125 L 126.574219 196.421875 L 126.257812 184.878906 C 126.191406 181.464844 126.167969 178.050781 126.152344 174.632812 C 126.140625 172.34375 126.28125 170.046875 126.167969 167.761719 C 126.070312 165.839844 125.675781 163.9375 125.484375 162.023438 C 125.402344 161.21875 125.527344 160.398438 125.539062 159.585938 C 125.550781 158.523438 130.917969 158.742188 131.488281 159.371094 C 133.085938 161.128906 134.070312 162.992188 134.132812 165.03125 C 134.316406 170.648438 134.574219 176.261719 134.910156 181.867188 C 135.175781 186.339844 135.722656 190.796875 135.925781 195.277344 C 136.144531 200.136719 136.109375 205.015625 136.167969 209.886719 C 136.167969 210.199219 136.078125 210.523438 136.183594 210.824219 C 137.527344 214.609375 136.644531 218.542969 137.015625 222.410156 C 137.261719 224.972656 137.414062 227.546875 137.484375 230.179688 L 137.511719 234.023438 L 137.566406 237.777344 C 137.65625 241.472656 137.519531 245.195312 137.582031 248.917969 C 137.59375 249.660156 137.523438 250.453125 138.011719 251.109375 C 139 252.449219 139.117188 253.867188 139.226562 255.285156 C 139.472656 258.503906 139.578125 261.738281 139.828125 264.964844 C 140.28125 270.792969 140.859375 276.613281 141.351562 282.4375 C 141.675781 286.21875 141.851562 290.011719 142.171875 293.792969 C 142.617188 299.175781 143.179688 304.546875 143.648438 309.925781 C 143.722656 310.769531 143.269531 311.660156 143.226562 312.523438 Z M 196.769531 288.425781 C 196.785156 293.601562 196.878906 298.777344 196.855469 303.953125 C 196.851562 304.769531 196.320312 305.582031 196.191406 306.398438 C 196.007812 307.585938 195.941406 308.773438 195.886719 309.960938 C 195.84375 310.914062 195.914062 311.867188 195.898438 312.820312 C 195.886719 313.59375 195.042969 314.1875 193.828125 314.664062 C 192.710938 315.097656 191.421875 315.046875 190.417969 314.558594 C 188.648438 313.699219 188.171875 312.613281 188.109375 311.472656 C 188.042969 310.28125 188.128906 309.085938 188.019531 307.894531 C 187.804688 305.523438 187.492188 303.152344 187.242188 300.78125 C 187.203125 300.429688 187.304688 300.070312 187.304688 299.714844 C 187.304688 295.847656 187.257812 291.980469 187.308594 288.113281 C 187.339844 285.378906 187.550781 282.644531 187.582031 279.910156 C 187.605469 277.839844 187.425781 275.773438 187.429688 273.703125 C 187.433594 271.324219 187.582031 268.941406 187.59375 266.558594 C 187.601562 264.058594 187.742188 261.546875 187.425781 259.054688 C 187.066406 256.261719 187.210938 253.472656 187.144531 250.679688 C 187.125 249.851562 186.746094 249.023438 186.726562 248.195312 C 186.683594 246.351562 186.734375 244.507812 186.808594 242.664062 C 186.953125 239.035156 187.269531 235.402344 187.273438 231.773438 C 187.273438 228.445312 186.953125 225.121094 186.777344 221.792969 C 186.761719 221.496094 186.789062 221.199219 186.789062 220.902344 C 186.792969 217.269531 186.652344 213.640625 186.835938 210.011719 C 187.035156 206.160156 186.414062 202.316406 186.558594 198.464844 C 186.605469 197.15625 186.6875 195.847656 186.742188 194.539062 C 186.894531 190.859375 187.011719 187.179688 187.191406 183.503906 C 187.355469 180.242188 187.566406 176.980469 187.789062 173.722656 C 187.9375 171.539062 188.234375 169.355469 188.28125 167.171875 C 188.324219 165.332031 188.0625 163.492188 188.007812 161.652344 C 187.984375 160.882812 188.167969 160.109375 188.234375 159.335938 C 188.324219 158.320312 193.660156 158.894531 194.183594 159.53125 C 195.652344 161.316406 196.5 163.15625 196.421875 165.105469 C 196.207031 170.46875 196.074219 175.828125 196.027344 181.191406 C 195.988281 185.46875 196.234375 189.75 196.144531 194.027344 C 196.050781 198.667969 195.710938 203.308594 195.472656 207.949219 C 195.460938 208.246094 195.351562 208.550781 195.4375 208.84375 C 196.554688 212.519531 195.457031 216.210938 195.640625 219.894531 C 195.886719 224.777344 195.828125 229.660156 195.757812 234.542969 C 195.707031 238.109375 195.402344 241.675781 195.257812 245.246094 C 195.230469 245.953125 195.117188 246.710938 195.566406 247.363281 C 196.484375 248.699219 196.515625 250.0625 196.539062 251.425781 C 196.601562 254.523438 196.5 257.621094 196.539062 260.722656 C 196.613281 266.320312 196.773438 271.921875 196.832031 277.523438 C 196.875 281.152344 196.761719 284.789062 196.769531 288.425781 Z M 196.769531 288.425781 " fill-opacity="1" fill-rule="nonzero"/></g></svg>